<svg id="icon-like" xmlns="http://www.w3.org/2000/svg" width="86" height="86" viewBox="0 0 86 86">
  <g id="circle__small">
    <circle id="circle-small" cx="43" cy="43" r="43" fill="#4dccad"/>
  </g>
  <path id="icon-heart" d="M37.743,4.5a14.021,14.021,0,0,0-10.666,5,14.021,14.021,0,0,0-10.666-5A12.888,12.888,0,0,0,3.375,17.616c0,9.059,8.056,16.33,20.261,27.542l3.441,3.1,3.441-3.1C42.723,33.946,50.78,26.675,50.78,17.616A12.888,12.888,0,0,0,37.743,4.5ZM28.536,42.025l-.479.444-.98.889-.98-.889-.479-.444c-5.743-5.276-10.712-9.834-13.982-13.9-3.191-3.954-4.6-7.19-4.6-10.506a9.478,9.478,0,0,1,2.7-6.757,9.274,9.274,0,0,1,6.678-2.712,10.451,10.451,0,0,1,7.874,3.7l2.792,3.316,2.792-3.316a10.412,10.412,0,0,1,7.874-3.7,9.319,9.319,0,0,1,6.689,2.712,9.5,9.5,0,0,1,2.7,6.757c0,3.3-1.424,6.552-4.6,10.506C39.247,32.191,34.291,36.749,28.536,42.025Z" transform="translate(15.625 16.5)" fill="#fff"/>
</svg>
