<svg xmlns="http://www.w3.org/2000/svg" width="26.054" height="26.054" viewBox="0 0 26.054 26.054">
  <path id="close" d="M28.387,22.859h0l-7.9-7.9,7.9-7.9h0a.816.816,0,0,0,0-1.151L24.653,2.166a.816.816,0,0,0-1.151,0h0l-7.9,7.9-7.9-7.9h0a.816.816,0,0,0-1.151,0L2.809,5.9a.816.816,0,0,0,0,1.151h0l7.9,7.9-7.9,7.9h0a.816.816,0,0,0,0,1.151l3.734,3.734a.816.816,0,0,0,1.151,0h0l7.9-7.9,7.9,7.9h0a.816.816,0,0,0,1.151,0l3.734-3.734a.816.816,0,0,0,0-1.151Z" transform="translate(-2.571 -1.928)" fill="#ed4949"/>
</svg>
