<svg id="icon__medal-bronze" xmlns="http://www.w3.org/2000/svg" width="115.852" height="118.365" viewBox="0 0 115.852 118.365">
  <circle id="Ellipse_3" data-name="Ellipse 3" cx="39.5" cy="39.5" r="39.5" transform="translate(18 20)" fill="#e1cca7"/>
  <g id="Gruppe_89" data-name="Gruppe 89">
    <path id="Pfad_213" data-name="Pfad 213" d="M178.386,70.406,170.766,59.98a1.966,1.966,0,0,1-.032-2.264l7.461-10.522a1.955,1.955,0,0,0-.67-2.838l-11.383-6.09a1.9,1.9,0,0,1-.988-2.041L167.29,23.5a1.943,1.943,0,0,0-1.849-2.264L152.559,20.7a1.944,1.944,0,0,1-1.786-1.4L147.2,6.86a1.943,1.943,0,0,0-2.646-1.244l-11.861,5.1a2.016,2.016,0,0,1-2.232-.478l-8.609-9.6a1.965,1.965,0,0,0-2.933.032L110.439,10.4a1.915,1.915,0,0,1-2.2.51L96.314,6A1.948,1.948,0,0,0,93.7,7.274L90.288,19.709a1.977,1.977,0,0,1-1.754,1.435l-12.882.733a1.963,1.963,0,0,0-1.817,2.3l2.328,12.69a1.929,1.929,0,0,1-.957,2.041L63.919,45.154a1.958,1.958,0,0,0-.638,2.838L70.9,58.418a1.966,1.966,0,0,1,.032,2.264L63.473,71.2a1.955,1.955,0,0,0,.67,2.838l11.383,6.09a1.9,1.9,0,0,1,.988,2.041L74.377,94.894a1.943,1.943,0,0,0,1.849,2.264l12.882.542a1.944,1.944,0,0,1,1.786,1.4l3.6,12.4a1.943,1.943,0,0,0,2.646,1.244l11.861-5.1a2.016,2.016,0,0,1,2.232.478l8.609,9.6a1.965,1.965,0,0,0,2.933-.032l8.481-9.725a1.915,1.915,0,0,1,2.2-.51l11.925,4.91A1.948,1.948,0,0,0,148,111.092l3.412-12.435a1.977,1.977,0,0,1,1.754-1.435l12.882-.733a1.963,1.963,0,0,0,1.817-2.3L165.536,81.5a1.929,1.929,0,0,1,.957-2.041l11.287-6.249A1.878,1.878,0,0,0,178.386,70.406ZM120.866,94.225a35.01,35.01,0,1,1,35.01-35.01A35.067,35.067,0,0,1,120.866,94.225Z" transform="translate(-62.919 0)" fill="#d5b98f"/>
  </g>
  <text id="rank" transform="translate(58 82)" fill="#2f3e51" font-size="50" font-family="Oswald-Medium, Oswald" font-weight="500" letter-spacing="0.05em"><tspan x="-12.4" y="0">3</tspan></text>
</svg>
