<svg xmlns="http://www.w3.org/2000/svg" width="223.791" height="223.791" viewBox="0 0 223.791 223.791">
  <path id="icon-success" d="M224.354,112.458A111.9,111.9,0,1,1,112.458.563,111.9,111.9,0,0,1,224.354,112.458ZM99.515,171.706l83.019-83.019a7.219,7.219,0,0,0,0-10.209L172.325,68.268a7.219,7.219,0,0,0-10.21,0l-67.705,67.7L62.8,104.363a7.22,7.22,0,0,0-10.21,0L42.382,114.572a7.219,7.219,0,0,0,0,10.209l46.924,46.924a7.219,7.219,0,0,0,10.21,0Z" transform="translate(-0.563 -0.563)" fill="#abe8b9"/>
</svg>
