<svg xmlns="http://www.w3.org/2000/svg" width="131.63" height="117.671" viewBox="0 0 131.63 117.671">
  <g id="icon__trophy" transform="translate(3 3)">
    <path id="icon-ranking" d="M120.4,13.959H97.712V5.235A5.222,5.222,0,0,0,92.478,0H33.152a5.222,5.222,0,0,0-5.235,5.235v8.724H5.235A5.222,5.222,0,0,0,0,19.193V31.408C0,39.194,4.907,47.2,13.5,53.371a51.1,51.1,0,0,0,23.992,9.1C44.341,73.83,52.346,78.519,52.346,78.519v15.7H41.877c-7.7,0-13.959,4.515-13.959,12.214v2.617a2.625,2.625,0,0,0,2.617,2.617H95.1a2.625,2.625,0,0,0,2.617-2.617v-2.617c0-7.7-6.26-12.214-13.959-12.214H73.284v-15.7s8-4.689,14.853-16.053a50.921,50.921,0,0,0,23.992-9.1c8.572-6.172,13.5-14.177,13.5-21.963V19.193A5.222,5.222,0,0,0,120.4,13.959ZM21.658,42.051c-5.322-3.839-7.7-8.114-7.7-10.644v-3.49h14a78.337,78.337,0,0,0,2.792,18.8,35.149,35.149,0,0,1-9.1-4.668Zm90.013-10.644c0,3.512-3.86,7.874-7.7,10.644a35.286,35.286,0,0,1-9.117,4.668,78.337,78.337,0,0,0,2.792-18.8h14.024Z" fill="none" stroke="#4dccad" stroke-width="6"/>
  </g>
</svg>
